<svg xmlns="http://www.w3.org/2000/svg" viewBox="0 0 900 1400" role="img" aria-label="Rhythm city and time tower at dusk">
  <defs>
    <linearGradient id="sky" x1="0" y1="0" x2="0" y2="1">
      <stop offset="0" stop-color="#78350f"/>
      <stop offset="0.42" stop-color="#172554"/>
      <stop offset="1" stop-color="#020617"/>
    </linearGradient>
    <radialGradient id="sun" cx="50%" cy="25%" r="42%">
      <stop offset="0" stop-color="#fef3c7" stop-opacity="0.52"/>
      <stop offset="0.55" stop-color="#f59e0b" stop-opacity="0.18"/>
      <stop offset="1" stop-color="#020617" stop-opacity="0"/>
    </radialGradient>
  </defs>
  <rect width="900" height="1400" fill="url(#sky)"/>
  <rect width="900" height="1400" fill="url(#sun)"/>
  <g stroke="#fbbf24" stroke-opacity="0.22" fill="none">
    <circle cx="450" cy="360" r="190" stroke-width="10"/>
    <circle cx="450" cy="360" r="122" stroke-width="5"/>
    <path d="M450 185 L450 535 M275 360 L625 360 M325 235 L575 485 M575 235 L325 485" stroke-width="4"/>
  </g>
  <g fill="#020617" opacity="0.82">
    <rect x="0" y="790" width="120" height="420"/>
    <rect x="130" y="695" width="135" height="515"/>
    <rect x="285" y="820" width="100" height="390"/>
    <rect x="405" y="585" width="112" height="625"/>
    <rect x="535" y="760" width="140" height="450"/>
    <rect x="700" y="670" width="130" height="540"/>
    <rect x="845" y="840" width="80" height="370"/>
  </g>
  <g fill="#fef3c7" opacity="0.48">
    <rect x="160" y="735" width="18" height="38"/>
    <rect x="210" y="790" width="18" height="38"/>
    <rect x="438" y="640" width="18" height="38"/>
    <rect x="470" y="700" width="18" height="38"/>
    <rect x="575" y="815" width="18" height="38"/>
    <rect x="620" y="875" width="18" height="38"/>
    <rect x="740" y="715" width="18" height="38"/>
    <rect x="790" y="780" width="18" height="38"/>
  </g>
  <g fill="#0f172a" stroke="#fbbf24" stroke-opacity="0.28">
    <path d="M360 1210 C420 1080 480 1080 540 1210 Z"/>
    <path d="M220 1210 C300 1125 600 1125 680 1210 Z"/>
  </g>
  <g fill="#fef3c7" opacity="0.72">
    <circle cx="155" cy="210" r="4"/>
    <circle cx="245" cy="305" r="3"/>
    <circle cx="705" cy="240" r="4"/>
    <circle cx="770" cy="340" r="3"/>
    <circle cx="610" cy="150" r="3"/>
  </g>
</svg>
